<svg width="80" height="53" viewBox="0 0 80 53" fill="none" xmlns="http://www.w3.org/2000/svg">
<path d="M0.0139909 29.7437C0.0139909 24.6243 0.0139909 19.5048 0.0139909 14.3853C0.0139909 13.9763 0.139909 13.9058 0.489682 13.9199C2.26653 13.934 4.04337 13.934 5.82022 13.9199C6.18398 13.9199 6.28192 14.0045 6.28192 14.3853C6.26793 17.8688 6.28192 21.3523 6.26792 24.8358C6.26792 25.1884 6.35187 25.2871 6.70164 25.273C7.40119 25.2448 8.11473 25.2448 8.81427 25.273C9.15005 25.273 9.24799 25.2025 9.24799 24.8358C9.234 21.3523 9.24799 17.8688 9.234 14.3853C9.234 14.0327 9.30395 13.9058 9.68171 13.9199C11.5005 13.9481 13.3193 13.9481 15.1382 13.9199C15.446 13.9199 15.5019 14.0045 15.5019 14.3007V45.2714C15.5019 45.5676 15.418 45.6381 15.1382 45.6381C13.3193 45.624 11.5005 45.624 9.68171 45.6381C9.35991 45.6381 9.234 45.5958 9.234 45.215C9.24799 40.6879 9.234 36.1748 9.24799 31.6618C9.24799 31.3233 9.16404 31.2387 8.84225 31.2387C8.12872 31.2669 7.40119 31.2669 6.67366 31.2387C6.36586 31.2387 6.25393 31.2951 6.25393 31.6477C6.26793 36.1325 6.25393 40.6315 6.28192 45.1163C6.28192 45.5535 6.14201 45.6381 5.75026 45.6381C3.97342 45.624 2.19657 45.624 0.419727 45.6381C0.0559637 45.6381 0 45.5394 0 45.2009C0 40.0532 0 34.9055 0 29.7578H0.0139909V29.7437Z" fill="white"/>
<path d="M38.6569 29.772V37.6275C38.6569 38.2057 38.6709 38.7839 38.9087 39.3057C39.1466 39.8276 39.5523 40.0673 40.1259 40.0814C40.6995 40.0955 41.0633 39.8135 41.3012 39.3198C41.497 38.925 41.553 38.5019 41.567 38.0647C41.567 36.1889 41.595 34.3132 41.567 32.4375C41.567 32.0849 41.6369 31.958 42.0147 31.958C43.8615 31.9862 45.7083 31.9721 47.5551 31.958C47.8489 31.958 47.9328 32.0426 47.9328 32.3387C47.9049 34.5106 47.9748 36.6684 47.8909 38.8403C47.8209 40.3071 47.5131 41.7315 46.7016 42.9726C45.7782 44.397 44.4491 45.215 42.8262 45.5958C40.8954 46.0471 38.9787 46.1176 37.0899 45.4407C34.6555 44.5663 33.2424 42.761 32.6548 40.2648C32.4309 39.3199 32.3889 38.3608 32.3889 37.4018C32.3889 32.6208 32.3889 27.8398 32.3889 23.0447C32.3889 21.2113 32.5988 19.392 33.3123 17.6714C34.2917 15.3302 36.0965 14.0891 38.5449 13.7507C40 13.5391 41.4411 13.6096 42.8681 14.0045C45.8202 14.8507 47.653 17.1636 47.7929 20.2664C47.8909 22.2549 47.8069 24.2435 47.8349 26.2179C47.8349 26.4859 47.737 26.5423 47.4991 26.5423C45.6383 26.5423 43.7775 26.5423 41.9168 26.5423C41.609 26.5423 41.553 26.4295 41.553 26.1474C41.553 24.5114 41.553 22.8755 41.539 21.2395C41.539 20.9292 41.483 20.633 41.3851 20.3369C41.2032 19.7445 40.8395 19.5048 40.1259 19.4766C39.4683 19.4625 39.0486 19.7022 38.8527 20.2664C38.6849 20.7318 38.6289 21.2113 38.6289 21.7049V29.772H38.6569Z" fill="white"/>
<path d="M34.3197 0C33.858 1.45263 33.3403 2.84886 33.1445 4.3579C32.5149 4.06173 31.9272 3.82198 31.2697 3.69505C28.2476 3.11682 25.0997 5.40154 24.7359 8.50426C24.638 9.33635 24.3302 10.0697 24.0504 10.9582C23.7286 10.0133 23.4627 9.18121 23.3088 8.2786C22.8751 5.61309 20.5107 3.63864 17.8384 3.62453C16.915 3.62453 16.0616 3.80788 15.2361 4.23097C15.0962 4.30149 14.9563 4.41432 14.9143 4.13225C14.7464 2.76424 14.2567 1.49494 13.837 0.183342C13.823 0.141032 13.823 0.0987227 13.809 0.0282065C14.1868 0 14.5505 0.126929 14.9003 0.225652C16.0056 0.52182 17.0969 0.916711 18.2162 1.14236C19.1535 1.33981 20.0909 1.33981 21.0004 1.04364C23.015 0.380788 25.0297 0.366684 27.0444 1.04364C28.5135 1.53725 29.9126 1.17057 31.3256 0.775678C32.1651 0.535923 32.9906 0.253858 33.844 0.0846195C33.9699 0.056413 34.0818 0.0423097 34.2777 0.0141032H34.2917L34.3197 0Z" fill="white"/>
<path d="M24.0644 52.9859H21.3221C21.0843 52.9859 20.9724 52.9718 20.9864 52.6756C21.0003 51.6179 21.0003 50.5601 20.9864 49.4883C20.9864 49.2485 21.0563 49.1921 21.2802 49.1921C23.141 49.1921 24.9878 49.1921 26.8486 49.1921C27.0864 49.1921 27.1563 49.2626 27.1563 49.4883C27.1424 50.546 27.1424 51.6038 27.1563 52.6756C27.1563 52.9154 27.0864 52.9859 26.8486 52.9859C25.9252 52.9859 24.9878 52.9859 24.0644 52.9859Z" fill="white"/>
<path d="M70.0245 11.1698C69.8846 11.2121 69.8706 11.0852 69.8426 11.0146C69.4089 9.9851 68.9752 8.96966 68.5415 7.95423C68.4715 7.79909 68.4715 7.74268 68.6674 7.65806C70.4162 6.91059 72.1651 6.16312 73.914 5.38744C74.0958 5.30282 74.1518 5.35923 74.2218 5.51437C74.6415 6.5157 75.0752 7.53113 75.4949 8.54657C75.5649 8.7017 75.5929 8.78632 75.397 8.87094C73.6341 9.63252 71.8853 10.38 70.1084 11.1557C70.0804 11.1557 70.0665 11.1839 70.0385 11.198L70.0245 11.1698Z" fill="white"/>
<path d="M63.4488 32.0285C63.127 30.1527 62.3155 28.6014 60.3148 28.009C60.3428 27.9526 60.3428 27.9244 60.3428 27.9244C60.4127 27.8962 60.4687 27.8539 60.5247 27.8398C61.8398 27.3603 62.6933 26.4154 63.029 25.0897C63.6167 22.7908 63.5187 20.4638 63.057 18.1509C62.8052 16.8534 62.2036 15.7392 61.0843 14.9776C59.993 14.2302 58.7478 13.9622 57.4607 13.9481C54.5645 13.9199 51.6684 13.9481 48.7583 13.9199C48.3666 13.9199 48.2966 14.0327 48.2966 14.3994C48.2966 20.0689 48.2966 25.7525 48.2966 31.4361V45.2291C48.2966 45.4407 48.2406 45.624 48.5904 45.624C51.5705 45.5958 54.5645 45.6945 57.5446 45.5676C60.4127 45.4548 62.0777 44.1996 62.9451 41.4353C63.9105 38.3608 64.0084 35.2017 63.4488 32.0285ZM54.4666 22.3254C54.4666 21.2677 54.4666 20.1958 54.4666 19.1381C54.4666 18.8701 54.5365 18.7714 54.8164 18.7855C55.1382 18.8137 55.4739 18.7855 55.8097 18.7996C56.6352 18.8419 57.0829 19.2086 57.1109 20.0266C57.1529 21.5216 57.2368 23.0165 57.0549 24.5114C57.0269 24.723 56.957 24.9486 56.873 25.1461C56.7191 25.5269 56.4393 25.7948 55.9916 25.8089C55.5859 25.823 55.1801 25.8089 54.7884 25.8512C54.5226 25.8654 54.4666 25.7666 54.4666 25.5269C54.4806 24.4691 54.4666 23.3973 54.4666 22.3395V22.3254ZM57.4886 37.9941C57.4187 39.3199 56.7331 39.9263 55.418 40.0391C54.7744 40.0955 54.4526 39.8135 54.4526 39.1788V31.1682C54.4526 30.9143 54.4946 30.7874 54.7744 30.8156C55.1801 30.8438 55.5859 30.8015 55.9776 30.8579C56.8311 30.9848 57.3347 31.5631 57.4467 32.6349C57.6146 34.4119 57.5866 36.203 57.4886 37.98V37.9941Z" fill="white"/>
<path d="M31.8433 23.1857C31.8433 21.9447 31.8713 20.6895 31.6474 19.4766C31.1158 16.5995 29.5488 14.6533 26.6807 13.934C24.9738 13.4968 23.2389 13.5109 21.532 13.934C19.7831 14.343 18.3701 15.2738 17.4606 16.8675C16.6912 18.1932 16.3694 19.674 16.3694 21.1972C16.3414 26.4295 16.3554 31.6618 16.3414 36.8941C16.3414 38.4595 16.4953 39.9827 17.0689 41.4494C17.6845 43.0572 18.6779 44.3547 20.2448 45.1022C22.4694 46.1599 24.7639 46.1881 27.0864 45.4689C28.5135 45.0317 29.6327 44.1291 30.4302 42.8598C31.3956 41.3648 31.8013 39.6724 31.8153 37.9236C31.8573 35.1171 31.8153 32.3105 31.8153 29.4899H31.8433V23.1857ZM25.5474 37.7826C25.5474 38.2903 25.4774 38.7839 25.2956 39.2634C25.0997 39.7853 24.7499 40.0391 24.2462 40.0673C23.6586 40.0955 23.1829 39.9263 22.9171 39.3481C22.6513 38.7416 22.6093 38.0788 22.6093 37.4159V21.7754C22.6093 21.2818 22.6513 20.8023 22.8471 20.3369C23.113 19.7022 23.5607 19.4484 24.3162 19.4766C24.9458 19.5189 25.2256 19.7869 25.4215 20.4638C25.5474 20.9151 25.5614 21.3805 25.5614 21.8318V37.7685L25.5474 37.7826Z" fill="white"/>
<path d="M79.958 45.2714C79.8041 43.6637 79.6502 42.0418 79.4963 40.434C79.2305 37.6839 78.9647 34.9337 78.6988 32.1695C78.433 29.3912 78.1812 26.6128 77.9293 23.8204C77.6355 20.6472 77.3277 17.4739 77.0339 14.3148C77.0059 13.9904 76.894 13.9058 76.5722 13.9058C74.9353 13.9199 73.2984 13.9058 71.6614 13.9058C70.0105 13.9058 68.3596 13.9058 66.7086 13.9058C66.3868 13.9058 66.2889 13.9904 66.2749 14.3289C66.2469 14.9776 66.163 15.6405 66.093 16.2892C65.7712 19.5894 65.4495 22.8755 65.1277 26.1756C64.8618 28.9399 64.61 31.7182 64.3442 34.4824C63.9944 38.0647 63.6446 41.661 63.2949 45.2432C63.2669 45.5676 63.3648 45.624 63.6586 45.624C65.3655 45.6099 67.0724 45.624 68.7793 45.624C69.4089 45.624 69.4089 45.624 69.4369 44.9753C69.5208 43.6213 69.6188 42.2674 69.7027 40.9276C69.7167 40.6315 69.8006 40.5045 70.1364 40.5045C71.1158 40.5327 72.1091 40.5327 73.0885 40.5045C73.4662 40.5045 73.5782 40.6032 73.6062 40.984C73.7041 42.4226 73.844 43.847 73.9699 45.2855C73.9839 45.5253 74.0399 45.6381 74.3337 45.6381C76.0965 45.624 77.8594 45.624 79.6222 45.6381C79.9021 45.6381 79.972 45.5676 79.944 45.2855H79.93L79.958 45.2714ZM72.8646 35.4556H71.6614C71.2837 35.4556 70.9059 35.4556 70.5282 35.4556C70.3323 35.4556 70.2343 35.4273 70.2623 35.1876C70.4022 33.3965 70.5282 31.5913 70.6541 29.8002C70.836 27.2898 71.0178 24.7935 71.1997 22.269C71.2697 21.4087 71.3256 20.5484 71.3816 19.674C71.3816 19.5471 71.3256 19.3214 71.5635 19.3214C71.7873 19.3214 71.7174 19.5189 71.7174 19.6458C71.8573 21.1267 71.9832 22.5934 72.1091 24.0742C72.319 26.5141 72.5289 28.9399 72.7387 31.3797C72.8507 32.6631 72.9486 33.9465 73.0605 35.2299C73.0745 35.4274 73.0185 35.4697 72.8506 35.4697L72.8646 35.4556Z" fill="white"/>
<path d="M18.0763 4.38611C15.404 4.3579 13.3893 6.67084 13.4732 9.06839C13.5572 11.5647 15.4739 13.5391 18.0203 13.5391C20.5666 13.5391 22.5673 11.5365 22.5813 9.04018C22.5813 6.5016 20.5526 4.42842 18.0902 4.40021L18.0763 4.38611ZM18.0063 12.6929C15.8937 12.6788 14.3267 11.0146 14.3407 8.81453C14.3547 6.86828 16.0616 5.2323 18.0623 5.24641C20.0909 5.24641 21.7279 6.9529 21.7279 9.01197C21.7279 11.0287 20.035 12.707 18.0063 12.6929Z" fill="white"/>
<path d="M30.0665 4.40021C27.5761 4.40021 25.5614 6.45929 25.5754 8.98377C25.4774 11.339 27.5341 13.6801 30.3323 13.5673C32.6688 13.4686 34.6695 11.4377 34.6555 8.98377C34.6415 6.43108 32.6128 4.40021 30.0665 4.40021ZM30.1084 12.707C28.0658 12.7211 26.4288 11.071 26.4008 8.98377C26.3869 6.9529 28.0378 5.27461 30.0665 5.26051C32.1231 5.26051 33.788 6.91059 33.802 9.01197C33.816 11.0146 32.1511 12.6929 30.1224 12.707H30.1084Z" fill="white"/>
<path d="M17.7964 7.77089C17.7964 6.91059 18.454 6.23363 19.3074 6.21953C20.1609 6.20543 20.8884 6.91059 20.8884 7.75678C20.8884 8.60298 20.1749 9.33635 19.3214 9.32224C18.496 9.32224 17.7964 8.61708 17.7964 7.77089Z" fill="white"/>
<path d="M30.3183 7.78499C30.3183 8.63119 29.6187 9.33635 28.7793 9.32224C27.9258 9.32224 27.2263 8.61708 27.2403 7.74268C27.2403 6.88238 27.9258 6.20543 28.7793 6.20543C29.6327 6.20543 30.3323 6.89649 30.3183 7.77089V7.78499Z" fill="white"/>
</svg>
