<svg width="36" height="23" viewBox="0 0 36 23" fill="none" xmlns="http://www.w3.org/2000/svg">
<path d="M18.1384 0L34.943 8.19769C36.8212 11.0632 33.0574 11.5312 31.7663 12.4352C31.8108 15.2821 32.6057 17.812 29.6924 17.4702C28.0785 17.2808 28.3901 15.8406 28.3836 14.1181L26.6028 14.8859C26.2634 17.417 27.4691 20.1884 25.4082 21.5493C22.4327 23.5157 13.6539 23.3609 10.5282 21.818C7.7985 20.4707 9.20089 18.0002 8.83731 14.8908L0.830121 11.0533L0 10.0304V8.91591C0.351526 8.12586 0.897829 7.9946 1.48865 7.66273L17.3083 0H18.1393H18.1384ZM29.4623 11.2923C29.5736 11.0359 29.5338 7.34572 29.3566 7.14759L17.7924 1.66802L1.2475 9.47563L8.79465 13.1856C9.01447 11.4087 8.42828 10.522 9.78708 9.50659C12.5844 7.41507 22.8631 7.41754 25.6605 9.50659C26.9581 10.4762 26.5305 11.4322 26.5861 13.1881C27.1575 12.7683 27.9199 12.7089 28.482 12.2978C28.5923 12.2173 29.4308 11.3641 29.4623 11.2923ZM30.7386 7.80142V11.1449L34.2019 9.56603L30.7386 7.80142ZM25.3386 10.9591C20.5416 8.94563 14.9051 8.94563 10.108 10.9591V18.0176C14.893 16.1489 20.5536 16.1452 25.3386 18.0176V10.9591ZM30.567 12.8637C30.2572 12.4427 29.7295 12.6977 29.5653 13.1931C29.3473 13.8481 29.5727 15.0518 29.492 15.7898H30.7395C30.67 15.1162 30.9028 13.3194 30.567 12.8637ZM25.3386 19.6918C20.5722 17.651 14.8782 17.6498 10.108 19.6918C9.78894 20.2627 13.6854 21.1134 13.9321 21.153C16.787 21.6038 20.5926 21.5468 23.4011 20.7134C23.5615 20.6663 25.5501 20.0695 25.3377 19.6918H25.3386Z" fill="white"/>
</svg>
