<svg width="30" height="29" viewBox="0 0 30 29" fill="none" xmlns="http://www.w3.org/2000/svg">
<g clip-path="url(#clip0_1093_1188)">
<path d="M20.5319 9.14405L25.3786 8.56383C26.0238 8.58708 26.7242 8.43343 27.297 8.80037C28.3282 9.45944 27.7309 10.535 28.0117 10.9444C28.0495 10.9989 28.8499 11.3163 29.096 11.5337C29.5871 11.9673 29.8464 12.6062 29.8812 13.2511C29.5891 17.5906 30.2559 22.3982 29.8812 26.6821C29.7607 28.0579 28.9306 28.8797 27.542 28.998H2.57761C1.14719 28.9666 0.240545 28.0761 0.119046 26.6821C-0.258723 22.3638 0.40901 17.5128 0.125172 13.1379C0.209915 12.1301 0.963412 11.1 2.03852 11.0525C1.96399 9.97699 2.01708 8.95705 3.21063 8.59011C5.31082 8.49206 7.3906 8.94694 9.47139 9.14506C10.4311 2.69894 19.5313 2.6959 20.5339 9.14405H20.5319ZM15.48 16.6404C16.6511 16.784 16.3805 15.7357 16.6204 14.9786C17.1891 13.1884 19.2434 12.9448 19.5456 10.3914C20.2858 4.15556 10.91 3.45606 10.4362 9.33106C10.1483 12.9003 12.6865 12.7972 13.3788 14.9786C13.6187 15.7357 13.3481 16.784 14.5192 16.6404V13.4927C14.5192 13.3107 12.4088 11.1041 12.1811 10.6967C11.9871 10.2711 12.2312 10.0376 12.6538 9.98305C13.1409 9.92038 17.4148 9.93959 17.6384 10.0477C17.8905 10.169 17.9345 10.4541 17.8191 10.6987C17.765 10.813 16.1355 12.4263 16.0231 12.492C15.6035 12.7346 15.1461 12.404 15.2564 11.9734C15.3268 11.6995 16.0762 11.2678 16.1988 10.9393H13.6789L15.4789 13.1369V16.6415L15.48 16.6404ZM15.48 27.8062C18.984 26.4011 22.7903 25.7269 26.5782 25.6683L26.8692 25.4813L26.8212 9.62926C26.5731 9.3907 24.5475 9.58882 24.0594 9.6333C22.9159 9.73742 21.7663 9.978 20.634 10.162C20.3624 11.3244 20.0888 12.311 19.3169 13.2531C18.837 13.8394 18.0805 14.2437 17.7384 14.8967C17.1248 16.0693 17.6833 17.4198 15.7852 17.5957C15.0757 17.6614 13.9087 17.6887 13.3297 17.2854C12.3843 16.6263 12.7713 15.8763 12.3823 15.016C12.077 14.3428 11.4011 14.0234 10.9192 13.4957C10.037 12.5294 9.66845 11.4053 9.36929 10.1599C8.57904 10.0498 7.799 9.87085 7.00772 9.76572C6.25831 9.66666 5.24242 9.54334 4.50219 9.51402C4.23878 9.50391 3.00337 9.42204 3.00337 9.8102V25.3711C3.00337 25.46 3.29435 25.64 3.42606 25.6652C4.12749 25.7987 5.38536 25.7026 6.18174 25.7875C9.02726 26.0938 11.8718 26.7559 14.5213 27.8062V19.491C14.1527 19.5042 13.7453 19.5668 13.5778 19.1686C13.4962 18.647 13.7739 18.5752 14.2139 18.5337C14.702 18.4873 16.3917 18.3629 16.4458 18.9623L16.3315 19.3242L15.481 19.491V27.8062H15.48ZM2.04261 12.0088C1.50556 12.1462 1.10533 12.7285 1.08287 13.2562C1.38508 17.532 0.679574 22.3527 1.07776 26.5639C1.12983 27.1188 1.61175 28.0437 2.2223 28.0437H12.1209L7.94704 27.0096C6.80046 26.8722 5.6498 26.7387 4.50117 26.6205C3.75891 26.5436 3.15243 26.8085 2.51737 26.2091C2.41629 26.113 2.04363 25.5601 2.04363 25.4904V12.0088H2.04261ZM27.9576 12.0088V25.4904C27.9576 25.8472 27.1755 26.5143 26.7906 26.5912C25.399 26.8712 23.504 26.6215 22.0542 27.0096L17.8803 28.0437H27.7789C28.3895 28.0437 28.8704 27.1188 28.9235 26.5639C29.3216 22.3527 28.6161 17.532 28.9194 13.2551C28.8591 12.7063 28.5641 12.0987 27.9596 12.0078L27.9576 12.0088Z" fill="white"/>
<path d="M14.521 0.308309C14.5587 0.175889 14.8865 -0.0363875 15.0549 0.00606775C15.1795 -0.00100813 15.4807 0.24968 15.4807 0.308309V2.56552C15.4807 2.65245 15.1009 2.93144 14.9467 2.86776C14.8222 2.87483 14.521 2.62414 14.521 2.56552C14.521 2.06313 14.4189 0.666146 14.521 0.308309Z" fill="white"/>
<path d="M18.0308 4.1384C17.896 4.00497 17.8572 3.75327 17.9358 3.57941C17.9777 3.48742 19.2784 2.1986 19.3734 2.14402C19.9298 1.82358 20.3781 2.13896 20.0983 2.74243C20.0554 2.83442 18.7588 4.12526 18.6648 4.17884C18.4545 4.29913 18.2197 4.32541 18.0318 4.13941L18.0308 4.1384Z" fill="white"/>
<path d="M10.0383 2.0439C10.6305 1.84678 11.773 3.26803 12.0803 3.75222L11.5811 4.24652C11.1941 4.08883 9.15008 2.34007 10.0394 2.0439H10.0383Z" fill="white"/>
<path d="M25.4087 21.54C25.5679 21.7018 25.5802 22.0879 25.4495 22.2658C25.2433 22.5438 24.2794 22.4215 23.9405 22.4629C21.7453 22.7288 19.5788 23.1736 17.4561 23.776C16.9977 23.8791 16.6505 23.3717 16.9283 23.0088C17.0988 22.7864 18.8743 22.3608 19.298 22.2618C20.7417 21.9231 22.3416 21.629 23.82 21.5127C24.1151 21.4895 25.2678 21.3975 25.4087 21.541V21.54Z" fill="white"/>
<path d="M4.76604 21.4167C5.16832 21.2964 7.05002 21.5693 7.60442 21.6461C8.53761 21.7765 9.50246 21.9716 10.4193 22.1859C11.1207 22.3497 13.8294 22.7267 12.8401 23.7103C12.4746 23.8902 10.7307 23.2574 10.1794 23.1361C8.39671 22.7449 6.59159 22.4548 4.76604 22.3183C4.33722 22.197 4.31885 21.5501 4.76604 21.4167Z" fill="white"/>
<path d="M24.333 19.0523C25.1079 19.0088 26.1177 19.0401 25.2335 19.9428C23.1639 20.0692 21.1352 20.4401 19.1228 20.9011C18.546 21.0335 17.0451 21.7765 16.848 21.0386C16.6826 20.4209 17.8425 20.2622 18.3326 20.1197C20.0846 19.6102 22.5136 19.1554 24.332 19.0523H24.333Z" fill="white"/>
<path d="M4.59309 17.5623C4.35826 17.3612 4.36949 16.8871 4.71561 16.7254C5.02498 16.5818 7.64486 16.9447 8.18701 17.0316C9.37443 17.2217 10.7538 17.5249 11.9065 17.8625C12.5099 18.0384 13.5779 18.1668 12.8397 18.9593C12.7111 19.0341 12.5773 19.026 12.4354 19.0149C11.4879 18.9381 9.78079 18.2992 8.66381 18.1041C8.05224 17.998 4.74829 17.6958 4.59309 17.5623Z" fill="white"/>
<path d="M16.9508 18.9876C16.7098 18.7491 16.8497 18.368 17.1244 18.2083C17.64 17.9081 19.4604 17.5341 20.1373 17.3915C21.3789 17.1297 23.0431 16.8022 24.2938 16.7557C24.7277 16.7395 26.1612 16.8285 25.4414 17.5351C25.2342 17.7382 22.8287 17.8818 22.2794 17.9677C21.5698 18.0789 20.8622 18.2184 20.1588 18.3629C19.3124 18.5368 18.1811 18.9947 17.4041 19.0847C17.2479 19.1029 17.0703 19.1059 16.9508 18.9887V18.9876Z" fill="white"/>
<path d="M4.76569 19.0412C5.16796 18.9209 7.04966 19.1938 7.60406 19.2706C9.36426 19.5163 11.1602 19.9479 12.8438 20.4968C13.0684 20.7808 13.0256 21.1619 12.6886 21.3055C12.5028 21.3853 9.57561 20.5817 9.02325 20.4786C8.24014 20.333 7.4356 20.2077 6.64739 20.0995C6.21142 20.0399 4.77283 20.0662 4.55128 19.7993C4.32972 19.5324 4.43182 19.1402 4.76671 19.0402L4.76569 19.0412Z" fill="white"/>
<path d="M4.59379 14.2367C4.30484 13.9931 4.44472 13.335 4.97564 13.3361C5.70565 13.3371 7.80993 13.5615 8.48277 13.7707C8.79417 13.8668 9.02492 13.9325 9.00654 14.3196L8.83195 14.633L8.46235 14.7512C7.84056 14.4773 4.89702 14.4935 4.59379 14.2367Z" fill="white"/>
<path d="M4.76648 11.4397C5.00131 11.3699 6.71965 11.5084 6.96775 11.5873C7.45783 11.7429 7.54257 12.4152 6.90751 12.49C6.52464 12.5344 4.73789 12.4232 4.55105 12.1988C4.33664 11.9411 4.43159 11.5398 4.76648 11.4397Z" fill="white"/>
</g>
<defs>
<clipPath id="clip0_1093_1188">
<rect width="30" height="29" fill="white"/>
</clipPath>
</defs>
</svg>
