<?xml version="1.0" encoding="UTF-8"?>
<svg id="Layer_2" data-name="Layer 2" xmlns="http://www.w3.org/2000/svg" viewBox="0 0 16 12">
  <defs>
    <style>
      .cls-1 {
        fill: #AF0000;
      }
    </style>
  </defs>
  <g id="Layer_1-2" data-name="Layer 1">
    <path class="cls-1" d="M14.5,0c.81,0,1.5.69,1.5,1.5v9c0,.84-.69,1.5-1.5,1.5H1.5c-.84,0-1.5-.66-1.5-1.5V1.5C0,.69.66,0,1.5,0h13ZM14.5,1.5H1.5v1.28c.69.59,1.81,1.47,4.19,3.34.53.41,1.56,1.41,2.31,1.38.72.03,1.75-.97,2.28-1.38,2.38-1.88,3.5-2.75,4.22-3.34v-1.28ZM1.5,10.5h13v-5.78c-.72.56-1.75,1.38-3.28,2.59-.72.53-1.91,1.72-3.22,1.69-1.34.03-2.56-1.16-3.25-1.69-1.53-1.22-2.56-2.03-3.25-2.59v5.78Z"/>
  </g>
</svg>