<svg width="33" height="29" viewBox="0 0 33 29" fill="none" xmlns="http://www.w3.org/2000/svg">
<path d="M14.0984 24.0527H4.025C2.89078 24.0527 1.96875 23.1252 1.96875 21.9855V8.81125H28.0656V9.87766C28.0656 10.4213 28.5064 10.862 29.05 10.862C29.5936 10.862 30.0344 10.4213 30.0344 9.87766V4.02609C30.0344 1.80687 28.2286 0 26.0083 0H4.025C1.80578 0 0 1.80687 0 4.02609V21.9855C0 24.2113 1.80578 26.0214 4.02609 26.0214H14.0995C14.6431 26.0214 15.0839 25.5806 15.0839 25.037C15.0839 24.4934 14.642 24.0527 14.0984 24.0527ZM4.025 1.96984H26.0094C27.1436 1.96984 28.0656 2.89188 28.0656 4.02609V6.84141H1.96875V4.02609C1.96875 2.89188 2.89078 1.96984 4.025 1.96984Z" fill="#AF0000"/>
<path d="M5.28605 5.26859C5.76447 5.26859 6.1523 4.88076 6.1523 4.40234C6.1523 3.92393 5.76447 3.53609 5.28605 3.53609C4.80763 3.53609 4.4198 3.92393 4.4198 4.40234C4.4198 4.88076 4.80763 5.26859 5.28605 5.26859Z" fill="#AF0000"/>
<path d="M8.33878 5.26859C8.8172 5.26859 9.20503 4.88076 9.20503 4.40234C9.20503 3.92393 8.8172 3.53609 8.33878 3.53609C7.86037 3.53609 7.47253 3.92393 7.47253 4.40234C7.47253 4.88076 7.86037 5.26859 8.33878 5.26859Z" fill="#AF0000"/>
<path d="M11.3914 5.26859C11.8698 5.26859 12.2576 4.88076 12.2576 4.40234C12.2576 3.92393 11.8698 3.53609 11.3914 3.53609C10.913 3.53609 10.5251 3.92393 10.5251 4.40234C10.5251 4.88076 10.913 5.26859 11.3914 5.26859Z" fill="#AF0000"/>
<path d="M31.5481 13.7637C30.2006 12.4141 27.848 12.4152 26.5005 13.7627L17.7734 22.4897C17.4923 22.7719 17.3086 23.1273 17.2419 23.5211L16.7639 26.3495C16.6611 26.9577 16.8602 27.5811 17.2955 28.0153C17.6553 28.3752 18.142 28.5742 18.643 28.5742C18.7491 28.5742 18.8541 28.5644 18.9591 28.548L21.7908 28.07C22.1845 28.0022 22.5422 27.8184 22.82 27.5384L31.547 18.8114C32.2208 18.1377 32.5916 17.2397 32.5916 16.287C32.5916 15.3344 32.223 14.4386 31.5481 13.7637ZM21.4637 26.1286L18.7064 26.6777L19.1669 23.882L25.422 17.6269L27.6872 19.892L21.4637 26.1286ZM30.1558 17.418L29.0784 18.4975L26.8144 16.2334L27.8939 15.1539C28.1958 14.852 28.5983 14.6847 29.0248 14.6847C29.4514 14.6847 29.8539 14.8509 30.1558 15.1539C30.7792 15.7784 30.7792 16.7945 30.1558 17.418Z" fill="#AF0000"/>
</svg>
