<svg width="35" height="35" viewBox="0 0 35 35" fill="none" xmlns="http://www.w3.org/2000/svg">
<path fill-rule="evenodd" clip-rule="evenodd" d="M17.1457 19.6103C17.3659 19.7328 17.6342 19.7328 17.8544 19.6103L30.9794 12.3187C31.2113 12.1903 31.3542 11.9468 31.3542 11.6814C31.3542 11.4174 31.2113 11.1724 30.9794 11.0441L17.8544 3.75241C17.6342 3.62991 17.3659 3.62991 17.1457 3.75241L4.02067 11.0441C3.78879 11.1724 3.64587 11.4174 3.64587 11.6814C3.64587 11.9468 3.78879 12.1903 4.02067 12.3187L17.1457 19.6103ZM17.5 18.1389L5.87712 11.6814L17.5 5.22386L29.123 11.6814L17.5 18.1389Z" fill="#AF0000"/>
<path fill-rule="evenodd" clip-rule="evenodd" d="M4.02071 18.1521L17.1457 25.4437C17.3659 25.5662 17.6343 25.5662 17.8545 25.4437L30.9795 18.1521C31.3309 17.9566 31.4578 17.5133 31.2624 17.1604C31.067 16.8089 30.6222 16.6821 30.2707 16.8775L17.5001 23.9723L4.72946 16.8775C4.378 16.6821 3.93321 16.8089 3.73779 17.1604C3.54237 17.5133 3.66925 17.9566 4.02071 18.1521Z" fill="#AF0000"/>
<path fill-rule="evenodd" clip-rule="evenodd" d="M4.02071 23.9854L17.1457 31.277C17.3659 31.3995 17.6343 31.3995 17.8545 31.277L30.9795 23.9854C31.3309 23.7899 31.4578 23.3466 31.2624 22.9937C31.067 22.6422 30.6222 22.5154 30.2707 22.7108L17.5001 29.8056L4.72946 22.7108C4.378 22.5154 3.93321 22.6422 3.73779 22.9937C3.54237 23.3466 3.66925 23.7899 4.02071 23.9854Z" fill="#AF0000"/>
</svg>
