<svg width="36" height="36" viewBox="0 0 36 36" fill="none" xmlns="http://www.w3.org/2000/svg">
<g clip-path="url(#clip0_899_796)">
<path d="M12.4307 0H4.16306C1.86757 0 0 1.86757 0 4.16306V12.4307C0 14.7262 1.86757 16.5938 4.16306 16.5938H12.4307C14.7262 16.5938 16.5938 14.7262 16.5938 12.4307V4.16306C16.5938 1.86757 14.7262 0 12.4307 0ZM13.7812 12.4307C13.7812 13.1754 13.1754 13.7812 12.4307 13.7812H4.16306C3.41838 13.7812 2.8125 13.1754 2.8125 12.4307V4.16306C2.8125 3.41838 3.41838 2.8125 4.16306 2.8125H12.4307C13.1754 2.8125 13.7812 3.41838 13.7812 4.16306V12.4307Z" fill="#AF0000"/>
<path d="M31.7812 0H23.625C21.2988 0 19.4062 1.89253 19.4062 4.21875V12.375C19.4062 14.7012 21.2988 16.5938 23.625 16.5938H31.7812C34.1075 16.5938 36 14.7012 36 12.375V4.21875C36 1.89253 34.1075 0 31.7812 0ZM33.1875 12.375C33.1875 13.1504 32.5567 13.7812 31.7812 13.7812H23.625C22.8496 13.7812 22.2188 13.1504 22.2188 12.375V4.21875C22.2188 3.44334 22.8496 2.8125 23.625 2.8125H31.7812C32.5567 2.8125 33.1875 3.44334 33.1875 4.21875V12.375Z" fill="#AF0000"/>
<path d="M12.4307 19.4062H4.16306C1.86757 19.4062 0 21.2738 0 23.5693V31.8369C0 34.1324 1.86757 36 4.16306 36H12.4307C14.7262 36 16.5938 34.1324 16.5938 31.8369V23.5693C16.5938 21.2738 14.7262 19.4062 12.4307 19.4062ZM13.7812 31.8369C13.7812 32.5816 13.1754 33.1875 12.4307 33.1875H4.16306C3.41838 33.1875 2.8125 32.5816 2.8125 31.8369V23.5693C2.8125 22.8246 3.41838 22.2188 4.16306 22.2188H12.4307C13.1754 22.2188 13.7812 22.8246 13.7812 23.5693V31.8369Z" fill="#AF0000"/>
<path d="M31.7812 19.4062H23.625C21.2988 19.4062 19.4062 21.2988 19.4062 23.625V31.7812C19.4062 34.1075 21.2988 36 23.625 36H31.7812C34.1075 36 36 34.1075 36 31.7812V23.625C36 21.2988 34.1075 19.4062 31.7812 19.4062ZM33.1875 31.7812C33.1875 32.5567 32.5567 33.1875 31.7812 33.1875H23.625C22.8496 33.1875 22.2188 32.5567 22.2188 31.7812V23.625C22.2188 22.8496 22.8496 22.2188 23.625 22.2188H31.7812C32.5567 22.2188 33.1875 22.8496 33.1875 23.625V31.7812Z" fill="#AF0000"/>
</g>
<defs>
<clipPath id="clip0_899_796">
<rect width="36" height="36" fill="white"/>
</clipPath>
</defs>
</svg>
