<svg width="157" height="124" viewBox="0 0 157 124" fill="none" xmlns="http://www.w3.org/2000/svg">
<path d="M151.031 11.1875H123.062V1.39844C123.062 0.629297 122.433 0 121.664 0H111.875C111.106 0 110.477 0.629297 110.477 1.39844V11.1875H84.6055V1.39844C84.6055 0.629297 83.9762 0 83.207 0H73.418C72.6488 0 72.0195 0.629297 72.0195 1.39844V11.1875H46.1484V1.39844C46.1484 0.629297 45.5191 0 44.75 0H34.9609C34.1918 0 33.5625 0.629297 33.5625 1.39844V11.1875H5.59375C2.49971 11.1875 0 13.6872 0 16.7812V117.469C0 120.563 2.49971 123.062 5.59375 123.062H151.031C154.125 123.062 156.625 120.563 156.625 117.469V16.7812C156.625 13.6872 154.125 11.1875 151.031 11.1875ZM144.039 110.477H12.5859V23.7734H33.5625V33.5625C33.5625 34.3316 34.1918 34.9609 34.9609 34.9609H44.75C45.5191 34.9609 46.1484 34.3316 46.1484 33.5625V23.7734H72.0195V33.5625C72.0195 34.3316 72.6488 34.9609 73.418 34.9609H83.207C83.9762 34.9609 84.6055 34.3316 84.6055 33.5625V23.7734H110.477V33.5625C110.477 34.3316 111.106 34.9609 111.875 34.9609H121.664C122.433 34.9609 123.062 34.3316 123.062 33.5625V23.7734H144.039V110.477ZM61.5312 58.7344H29.3672C28.598 58.7344 27.9688 59.3637 27.9688 60.1328V68.5234C27.9688 69.2926 28.598 69.9219 29.3672 69.9219H61.5312C62.3004 69.9219 62.9297 69.2926 62.9297 68.5234V60.1328C62.9297 59.3637 62.3004 58.7344 61.5312 58.7344ZM61.5312 82.5078H29.3672C28.598 82.5078 27.9688 83.1371 27.9688 83.9062V92.2969C27.9688 93.066 28.598 93.6953 29.3672 93.6953H61.5312C62.3004 93.6953 62.9297 93.066 62.9297 92.2969V83.9062C62.9297 83.1371 62.3004 82.5078 61.5312 82.5078ZM115.406 51.4975L97.2963 76.6169L88.0666 63.8387C87.5422 63.1045 86.7031 62.685 85.8116 62.685H76.2148C75.0786 62.685 74.4144 63.9785 75.0786 64.905L95.0238 92.5591C95.2813 92.9164 95.6201 93.2075 96.0121 93.4082C96.4042 93.609 96.8383 93.7136 97.2788 93.7136C97.7193 93.7136 98.1534 93.609 98.5455 93.4082C98.9376 93.2075 99.2763 92.9164 99.5338 92.5591L128.377 52.5812C129.041 51.6548 128.377 50.3612 127.24 50.3612H117.644C116.77 50.3438 115.93 50.7808 115.406 51.4975Z" fill="#AF0000"/>
</svg>
